<?xml version="1.0" standalone="no"?>
<!DOCTYPE svg PUBLIC "-//W3C//DTD SVG 20010904//EN"
 "http://www.w3.org/TR/2001/REC-SVG-20010904/DTD/svg10.dtd">
<svg version="1.0" xmlns="http://www.w3.org/2000/svg"
 width="500.000000pt" height="500.000000pt" viewBox="0 0 500.000000 500.000000"
 preserveAspectRatio="xMidYMid meet">

<g transform="translate(0.000000,500.000000) scale(0.100000,-0.100000)"
fill="#000000" stroke="none">
<path d="M0 2500 l0 -2500 2500 0 2500 0 0 2500 0 2500 -2500 0 -2500 0 0
-2500z m3322 1150 c155 -48 280 -173 328 -329 19 -60 20 -96 20 -821 0 -728
-1 -760 -20 -822 -48 -155 -173 -280 -329 -328 -60 -19 -96 -20 -821 -20 -725
0 -761 1 -821 20 -156 48 -281 173 -329 328 -19 62 -20 94 -20 822 0 731 1
760 20 823 48 154 171 278 328 328 53 17 110 18 818 18 733 1 764 0 826 -19z"/>
</g>
</svg>
